# xmcd
#
# Track frame offsets:
#  150
#  16692
#  28067
#  40725
#  52865
#  66215
#  80547
#  93110
#  106912
#  122180
#  141430
#  153952
#
# Disc length: 2307 seconds
#
# Revision: 0
# Processed by: cddbd v1.4PL0 Copyright (c) Steve Scherf et al.
# Submitted via: AltoMP3_Maker 3.0
#
DISCID=8f09010c
DTITLE=Wedgwood Trio - Higher Ground
DYEAR=1900
DGENRE=
TTITLE0=Dry Soul of Mine
TTITLE1=Church in the Wildwood
TTITLE2=Day of Judgement/Power in the Blood
TTITLE3=Jesus, What a Friend for Sinners
TTITLE4=Old Rigged Cross
TTITLE5=Wonderful Peace
TTITLE6=Mansion Over the Hilltop
TTITLE7=Tell it Again
TTITLE8=God's Unchanging Hand
TTITLE9=Higher Ground
TTITLE10=O Sinner Man
TTITLE11=Perfect Rest
EXTD=
EXTT0=
EXTT1=
EXTT2=
EXTT3=
EXTT4=
EXTT5=
EXTT6=
EXTT7=
EXTT8=
EXTT9=
EXTT10=
EXTT11=
PLAYORDER=
